name rise44.9368peak50.754fall52.0217.mot
datacolumns 19
datarows 30
range 16.22327100000000 16.27160600000000
endheader
time	ground_force1_vx	ground_force1_vy	ground_force1_vz	ground_force1_px	ground_force1_py	ground_force1_pz	ground_force2_vx	ground_force2_vy	ground_force2_vz	ground_force2_px	ground_force2_py	ground_force2_pz	ground_torque1_x	ground_torque1_y	ground_torque1_z	ground_torque2_x	ground_torque2_y	ground_torque2_z	
16.22327100000000	-4.51338000000000	703.92761399999995	49.95241800000000	0.20327700000000	0.00000000000000	0.15773100000000	0.00000000000000	0.00000000000000	0.00000000000000	0.00000000000000	0.00000000000000	0.00000000000000	0.00000000000000	20.09633000000000	0.00000000000000	0.00000000000000	0.00000000000000	0.00000000000000	
16.22494500000000	-4.82561300000000	703.92200600000001	49.95756700000000	0.20255800000000	0.00000000000000	0.15773400000000	0.00000000000000	0.00000000000000	0.00000000000000	0.00000000000000	0.00000000000000	0.00000000000000	0.00000000000000	20.14181300000000	0.00000000000000	0.00000000000000	0.00000000000000	0.00000000000000	
16.22661500000000	-5.14423900000000	703.95244300000002	49.97133200000000	0.20183600000000	0.00000000000000	0.15773900000000	0.00000000000000	0.00000000000000	0.00000000000000	0.00000000000000	0.00000000000000	0.00000000000000	0.00000000000000	20.19321800000000	0.00000000000000	0.00000000000000	0.00000000000000	0.00000000000000	
16.22827300000000	-5.46968400000000	704.01891699999999	49.99338100000000	0.20111100000000	0.00000000000000	0.15774500000000	0.00000000000000	0.00000000000000	0.00000000000000	0.00000000000000	0.00000000000000	0.00000000000000	0.00000000000000	20.25042700000000	0.00000000000000	0.00000000000000	0.00000000000000	0.00000000000000	
16.22994700000000	-5.80235700000000	704.12141999999994	50.02337000000000	0.20038000000000	0.00000000000000	0.15775300000000	0.00000000000000	0.00000000000000	0.00000000000000	0.00000000000000	0.00000000000000	0.00000000000000	0.00000000000000	20.31331700000000	0.00000000000000	0.00000000000000	0.00000000000000	0.00000000000000	
16.23161000000000	-6.14264400000000	704.25995200000000	50.06094900000000	0.19964300000000	0.00000000000000	0.15776200000000	0.00000000000000	0.00000000000000	0.00000000000000	0.00000000000000	0.00000000000000	0.00000000000000	0.00000000000000	20.38176200000000	0.00000000000000	0.00000000000000	0.00000000000000	0.00000000000000	
16.23327800000000	-6.49091400000000	704.43451600000003	50.10576200000000	0.19889800000000	0.00000000000000	0.15777300000000	0.00000000000000	0.00000000000000	0.00000000000000	0.00000000000000	0.00000000000000	0.00000000000000	0.00000000000000	20.45563600000000	0.00000000000000	0.00000000000000	0.00000000000000	0.00000000000000	
16.23494200000000	-6.84750800000000	704.64512600000000	50.15744600000000	0.19814300000000	0.00000000000000	0.15778500000000	0.00000000000000	0.00000000000000	0.00000000000000	0.00000000000000	0.00000000000000	0.00000000000000	0.00000000000000	20.53480700000000	0.00000000000000	0.00000000000000	0.00000000000000	0.00000000000000	
16.23660900000000	-7.21274600000000	704.89180299999998	50.21563500000000	0.19737800000000	0.00000000000000	0.15779800000000	0.00000000000000	0.00000000000000	0.00000000000000	0.00000000000000	0.00000000000000	0.00000000000000	0.00000000000000	20.61914600000000	0.00000000000000	0.00000000000000	0.00000000000000	0.00000000000000	
16.23827400000000	-7.58692000000000	705.17457899999999	50.27996400000000	0.19660100000000	0.00000000000000	0.15781300000000	0.00000000000000	0.00000000000000	0.00000000000000	0.00000000000000	0.00000000000000	0.00000000000000	0.00000000000000	20.70851900000000	0.00000000000000	0.00000000000000	0.00000000000000	0.00000000000000	
16.23994000000000	-7.97029700000000	705.49349600000005	50.35006500000000	0.19581300000000	0.00000000000000	0.15782900000000	0.00000000000000	0.00000000000000	0.00000000000000	0.00000000000000	0.00000000000000	0.00000000000000	0.00000000000000	20.80279500000000	0.00000000000000	0.00000000000000	0.00000000000000	0.00000000000000	
16.24160700000000	-8.36311200000000	705.84860800000001	50.42557300000000	0.19501100000000	0.00000000000000	0.15784600000000	0.00000000000000	0.00000000000000	0.00000000000000	0.00000000000000	0.00000000000000	0.00000000000000	0.00000000000000	20.90183900000000	0.00000000000000	0.00000000000000	0.00000000000000	0.00000000000000	
16.24328800000000	-8.76557300000000	706.23998200000005	50.50612500000000	0.19419500000000	0.00000000000000	0.15786500000000	0.00000000000000	0.00000000000000	0.00000000000000	0.00000000000000	0.00000000000000	0.00000000000000	0.00000000000000	21.00552000000000	0.00000000000000	0.00000000000000	0.00000000000000	0.00000000000000	
16.24494100000000	-9.17785900000000	706.66769699999998	50.59136600000000	0.19336400000000	0.00000000000000	0.15788500000000	0.00000000000000	0.00000000000000	0.00000000000000	0.00000000000000	0.00000000000000	0.00000000000000	0.00000000000000	21.11370400000000	0.00000000000000	0.00000000000000	0.00000000000000	0.00000000000000	
16.24661200000000	-9.60011700000000	707.13184300000000	50.68094300000000	0.19251900000000	0.00000000000000	0.15790500000000	0.00000000000000	0.00000000000000	0.00000000000000	0.00000000000000	0.00000000000000	0.00000000000000	0.00000000000000	21.22625900000000	0.00000000000000	0.00000000000000	0.00000000000000	0.00000000000000	
16.24827300000000	-10.03246100000000	707.63252199999999	50.77451500000000	0.19165900000000	0.00000000000000	0.15792700000000	0.00000000000000	0.00000000000000	0.00000000000000	0.00000000000000	0.00000000000000	0.00000000000000	0.00000000000000	21.34305500000000	0.00000000000000	0.00000000000000	0.00000000000000	0.00000000000000	
16.24994000000000	-10.47497700000000	708.16984800000000	50.87174800000000	0.19078300000000	0.00000000000000	0.15794900000000	0.00000000000000	0.00000000000000	0.00000000000000	0.00000000000000	0.00000000000000	0.00000000000000	0.00000000000000	21.46396100000000	0.00000000000000	0.00000000000000	0.00000000000000	0.00000000000000	
16.25160900000000	-10.92771500000000	708.74394800000005	50.97231900000000	0.18989200000000	0.00000000000000	0.15797200000000	0.00000000000000	0.00000000000000	0.00000000000000	0.00000000000000	0.00000000000000	0.00000000000000	0.00000000000000	21.58885000000000	0.00000000000000	0.00000000000000	0.00000000000000	0.00000000000000	
16.25327400000000	-11.39069600000000	709.35495400000002	51.07591700000000	0.18898600000000	0.00000000000000	0.15799600000000	0.00000000000000	0.00000000000000	0.00000000000000	0.00000000000000	0.00000000000000	0.00000000000000	0.00000000000000	21.71759200000000	0.00000000000000	0.00000000000000	0.00000000000000	0.00000000000000	
16.25494700000000	-11.86390800000000	710.00301200000001	51.18224700000000	0.18806400000000	0.00000000000000	0.15802100000000	0.00000000000000	0.00000000000000	0.00000000000000	0.00000000000000	0.00000000000000	0.00000000000000	0.00000000000000	21.85006400000000	0.00000000000000	0.00000000000000	0.00000000000000	0.00000000000000	
16.25661200000000	-12.34730700000000	710.68827199999998	51.29102600000000	0.18712700000000	0.00000000000000	0.15804500000000	0.00000000000000	0.00000000000000	0.00000000000000	0.00000000000000	0.00000000000000	0.00000000000000	0.00000000000000	21.98614100000000	0.00000000000000	0.00000000000000	0.00000000000000	0.00000000000000	
16.25827500000000	-12.84081800000000	711.41089099999999	51.40198800000000	0.18617600000000	0.00000000000000	0.15807000000000	0.00000000000000	0.00000000000000	0.00000000000000	0.00000000000000	0.00000000000000	0.00000000000000	0.00000000000000	22.12569900000000	0.00000000000000	0.00000000000000	0.00000000000000	0.00000000000000	
16.25995900000000	-13.34433500000000	712.17103099999997	51.51488500000000	0.18521100000000	0.00000000000000	0.15809600000000	0.00000000000000	0.00000000000000	0.00000000000000	0.00000000000000	0.00000000000000	0.00000000000000	0.00000000000000	22.26861900000000	0.00000000000000	0.00000000000000	0.00000000000000	0.00000000000000	
16.26161300000000	-13.85771900000000	712.96885299999997	51.62948400000000	0.18423200000000	0.00000000000000	0.15812100000000	0.00000000000000	0.00000000000000	0.00000000000000	0.00000000000000	0.00000000000000	0.00000000000000	0.00000000000000	22.41478000000000	0.00000000000000	0.00000000000000	0.00000000000000	0.00000000000000	
16.26327900000000	-14.38080600000000	713.80452200000002	51.74557500000000	0.18324100000000	0.00000000000000	0.15814600000000	0.00000000000000	0.00000000000000	0.00000000000000	0.00000000000000	0.00000000000000	0.00000000000000	0.00000000000000	22.56406400000000	0.00000000000000	0.00000000000000	0.00000000000000	0.00000000000000	
16.26494400000000	-14.91339900000000	714.67819799999995	51.86296600000000	0.18223800000000	0.00000000000000	0.15817100000000	0.00000000000000	0.00000000000000	0.00000000000000	0.00000000000000	0.00000000000000	0.00000000000000	0.00000000000000	22.71635500000000	0.00000000000000	0.00000000000000	0.00000000000000	0.00000000000000	
16.26660800000000	-15.45527600000000	715.59003600000005	51.98148500000000	0.18122300000000	0.00000000000000	0.15819600000000	0.00000000000000	0.00000000000000	0.00000000000000	0.00000000000000	0.00000000000000	0.00000000000000	0.00000000000000	22.87153600000000	0.00000000000000	0.00000000000000	0.00000000000000	0.00000000000000	
16.26828000000000	-16.00618400000000	716.54018399999995	52.10098300000000	0.18019900000000	0.00000000000000	0.15822000000000	0.00000000000000	0.00000000000000	0.00000000000000	0.00000000000000	0.00000000000000	0.00000000000000	0.00000000000000	23.02949200000000	0.00000000000000	0.00000000000000	0.00000000000000	0.00000000000000	
16.26993900000000	-16.56584900000000	717.52877899999999	52.22133100000000	0.17916600000000	0.00000000000000	0.15824400000000	0.00000000000000	0.00000000000000	0.00000000000000	0.00000000000000	0.00000000000000	0.00000000000000	0.00000000000000	23.19010900000000	0.00000000000000	0.00000000000000	0.00000000000000	0.00000000000000	
16.27160600000000	-17.13396800000000	718.55594399999995	52.34242500000000	0.17812400000000	0.00000000000000	0.15826700000000	0.00000000000000	0.00000000000000	0.00000000000000	0.00000000000000	0.00000000000000	0.00000000000000	0.00000000000000	23.35327400000000	0.00000000000000	0.00000000000000	0.00000000000000	0.00000000000000	
